<?xml version="1.0" ?><svg id="Layer_1" style="enable-background:new 0 0 50 50;" version="1.1" viewBox="0 0 50 50" xml:space="preserve" xmlns="http://www.w3.org/2000/svg" xmlns:xlink="http://www.w3.org/1999/xlink"><style type="text/css">
	.st0{fill:#F0C4DB;}
	.st1{fill:#FF9D9C;}
	.st2{fill:#9BEAF9;}
	.st3{fill:#E9F4BC;}
	.st4{fill:#505050;}
	.st5{fill:#FEBECC;}
	.st6{fill:#FFFFFF;}
	.st7{fill:#FDE4A1;}
	.st8{fill:#FEE7B5;}
	.st9{fill:#CDF6FC;}
	.st10{fill:#F2C6DD;}
	.st11{opacity:0.1;}
</style><g><path class="st5" d="M48.88,19c-2.04-0.66-4.22-1.03-6.48-1.03c-11.6,0-21,9.4-21,21c0,3.07,0.67,5.98,1.86,8.61h25.62V19z"/><g><g><path class="st2" d="M41.74,3.17H8.01c-1.09,0-1.98,0.89-1.98,1.98v23.48h37.68V5.15C43.71,4.07,42.83,3.17,41.74,3.17z"/><polygon class="st1" points="47.88,34.95 1.88,34.95 6.04,28.64 43.71,28.64    "/><rect class="st9" height="4" width="46" x="1.88" y="34.95"/><rect class="st6" height="4.56" width="3.12" x="12.86" y="21.58"/><rect class="st3" height="7.53" width="3.12" x="19.24" y="18.61"/><rect class="st6" height="11.47" width="3.12" x="25.62" y="14.67"/><rect class="st3" height="15.94" width="3.12" x="32.74" y="10.2"/></g><g><circle class="st4" cx="6.04" cy="19.32" r="0.75"/><path class="st4" d="M48.62,34.93c0-0.02-0.01-0.04-0.01-0.06c-0.01-0.1-0.04-0.2-0.09-0.28c-0.01-0.01-0.01-0.03-0.02-0.05     l-4.04-6.13V8.68c0.01-0.02,0.01-0.04,0.01-0.05c0-0.01,0-0.01-0.01-0.02V5.15c0-1.5-1.22-2.72-2.72-2.72H8.02     c-1.51,0-2.73,1.22-2.73,2.72v12.17c0,0.42,0.34,0.75,0.75,0.75c0.41,0,0.75-0.33,0.75-0.75V5.15c0-0.67,0.55-1.22,1.23-1.23     h33.72c0.67,0.01,1.22,0.56,1.22,1.23v3.48c0,0.02,0.01,0.03,0.01,0.05l-0.01,19.21H6.79v-6.57c0-0.41-0.34-0.75-0.75-0.75     c-0.41,0-0.74,0.33-0.75,0.74v0.01v7.09l-4.04,6.13c-0.01,0.01-0.01,0.03-0.02,0.05c-0.05,0.09-0.08,0.18-0.09,0.28     c0,0.02-0.01,0.04-0.01,0.06c0,0.01,0,0.01,0,0.02v4c0,0.41,0.34,0.75,0.75,0.75h46c0.41,0,0.75-0.34,0.75-0.75v-4     C48.63,34.94,48.62,34.94,48.62,34.93z M6.44,29.39h36.87l3.17,4.81H3.27L6.44,29.39z M47.13,38.2H2.63v-2.5h44.5V38.2z"/><path class="st4" d="M12.11,21.58v4.56c0,0.41,0.34,0.75,0.75,0.75h3.12c0.41,0,0.75-0.34,0.75-0.75v-4.56     c0-0.41-0.34-0.75-0.75-0.75h-3.12C12.45,20.83,12.11,21.17,12.11,21.58z M13.61,22.33h1.62v3.06h-1.62V22.33z"/><path class="st4" d="M19.24,17.86c-0.41,0-0.75,0.34-0.75,0.75v7.53c0,0.41,0.34,0.75,0.75,0.75h3.12c0.41,0,0.75-0.34,0.75-0.75     v-7.53c0-0.41-0.34-0.75-0.75-0.75H19.24z M21.61,25.39h-1.62v-6.03h1.62V25.39z"/><path class="st4" d="M25.62,13.92c-0.41,0-0.75,0.34-0.75,0.75v11.47c0,0.41,0.34,0.75,0.75,0.75h3.12     c0.41,0,0.75-0.34,0.75-0.75V14.67c0-0.41-0.34-0.75-0.75-0.75H25.62z M27.99,25.39h-1.62v-9.97h1.62V25.39z"/><path class="st4" d="M35.86,26.89c0.41,0,0.75-0.34,0.75-0.75V10.2c0-0.41-0.34-0.75-0.75-0.75h-3.12     c-0.41,0-0.75,0.34-0.75,0.75v15.94c0,0.41,0.34,0.75,0.75,0.75H35.86z M33.49,10.95h1.62v14.44h-1.62V10.95z"/><path class="st4" d="M14.87,17.67c0.15,0.2,0.38,0.31,0.61,0.31c0.15,0,0.31-0.05,0.44-0.15l11.67-8.54l-0.19,1.21     c-0.06,0.41,0.22,0.79,0.63,0.86c0.04,0.01,0.08,0.01,0.12,0.01c0.36,0,0.68-0.26,0.74-0.64l0.46-3     c0.06-0.41-0.22-0.79-0.63-0.86l-3-0.46c-0.4-0.06-0.79,0.22-0.86,0.63c-0.06,0.41,0.22,0.79,0.63,0.86l1.21,0.19l-11.67,8.54     C14.69,16.87,14.62,17.33,14.87,17.67z"/></g></g></g></svg>